<?xml version="1.0" encoding="UTF-8" standalone="no"?>
<!DOCTYPE svg PUBLIC "-//W3C//DTD SVG 1.1//EN" "http://www.w3.org/Graphics/SVG/1.1/DTD/svg11.dtd">
<svg width="100%" height="100%" viewBox="0 0 2481 3508" version="1.1" xmlns="http://www.w3.org/2000/svg" xmlns:xlink="http://www.w3.org/1999/xlink" xml:space="preserve" xmlns:serif="http://www.serif.com/" style="fill-rule:evenodd;clip-rule:evenodd;stroke-linejoin:round;stroke-miterlimit:2;">
    <g transform="matrix(1,0,0,1,-13164,-87.4083)">
        <g id="Artboard3" transform="matrix(1,0,0,1,-37.1871,87.4083)">
            <rect x="13201.2" y="0" width="2480.32" height="3507.87" style="fill:none;"/>
            <g transform="matrix(3.0721,0,0,3.0721,7034.11,-1208.54)">
                <path d="M2411.13,901.24L2307.95,1179.54C2307.51,1180.71 2306.39,1181.49 2305.13,1181.49L2162.15,1181.49C2161.05,1181.49 2160.03,1180.88 2159.51,1179.91C2158.99,1178.93 2159.04,1177.75 2159.66,1176.83L2301.53,963.984L2159.66,751.808C2159.05,750.888 2158.99,749.704 2159.51,748.727C2160.03,747.751 2161.05,747.141 2162.15,747.141L2305.13,747.141C2306.6,747.141 2307.85,748.198 2308.09,749.643L2342.04,951.235C2342.12,951.663 2342.46,951.996 2342.89,952.058C2343.32,952.121 2343.74,951.899 2343.93,951.509L2408.44,820.059C2408.95,819.032 2409.99,818.381 2411.13,818.381C2412.28,818.381 2413.32,819.032 2413.83,820.059L2478.34,951.509C2478.53,951.899 2478.95,952.121 2479.38,952.058C2479.81,951.996 2480.15,951.663 2480.22,951.235L2514.18,749.643C2514.42,748.198 2515.67,747.141 2517.13,747.141L2660.11,747.141C2661.22,747.141 2662.24,747.751 2662.76,748.727C2663.28,749.704 2663.22,750.888 2662.61,751.808L2520.74,963.984L2662.61,1176.83C2663.22,1177.75 2663.28,1178.93 2662.76,1179.91C2662.24,1180.88 2661.22,1181.49 2660.11,1181.49L2517.13,1181.49C2515.88,1181.49 2514.76,1180.71 2514.32,1179.54L2411.13,901.24Z"/>
            </g>
        </g>
    </g>
</svg>
