<svg xmlns="http://www.w3.org/2000/svg" xmlns:xlink="http://www.w3.org/1999/xlink" width="360" zoomAndPan="magnify" viewBox="0 0 270 48" height="64" preserveAspectRatio="xMidYMid meet" version="1.0"><path fill="#000000" d="M 22.21875 32.289062 L 16.699219 17.324219 L 11 17.324219 L 5.480469 32.289062 L 10.394531 32.289062 L 10.976562 30.359375 L 16.722656 30.359375 L 17.304688 32.289062 Z M 15.554688 26.589844 L 12.144531 26.589844 L 13.847656 21.320312 Z M 15.554688 26.589844 " fill-opacity="1" fill-rule="nonzero"/><path fill="#000000" d="M 41.605469 26.144531 C 41.605469 29.84375 43.757812 32.558594 48.808594 32.558594 C 53.855469 32.558594 55.988281 29.84375 55.988281 26.121094 L 55.988281 17.324219 L 51.386719 17.324219 L 51.386719 25.984375 C 51.386719 27.421875 50.648438 28.566406 48.808594 28.566406 C 46.945312 28.566406 46.203125 27.421875 46.203125 25.984375 L 46.203125 17.324219 L 41.605469 17.324219 Z M 41.605469 26.144531 " fill-opacity="1" fill-rule="nonzero"/><path fill="#000000" d="M 90.386719 32.289062 L 87.671875 26.996094 C 88.859375 26.414062 90.363281 25.042969 90.363281 22.464844 C 90.363281 19.660156 88.480469 17.324219 84.976562 17.324219 L 76.988281 17.324219 L 76.988281 32.289062 L 81.523438 32.289062 L 81.523438 27.488281 L 83.160156 27.488281 L 85.226562 32.289062 Z M 85.761719 22.394531 C 85.761719 23.226562 85.046875 23.71875 84.28125 23.71875 L 81.523438 23.71875 L 81.523438 21.09375 L 84.28125 21.09375 C 85.046875 21.09375 85.761719 21.589844 85.761719 22.394531 Z M 85.761719 22.394531 " fill-opacity="1" fill-rule="nonzero"/><path fill="#000000" d="M 125.90625 32.289062 L 120.386719 17.324219 L 114.6875 17.324219 L 109.164062 32.289062 L 114.082031 32.289062 L 114.664062 30.359375 L 120.410156 30.359375 L 120.992188 32.289062 Z M 119.242188 26.589844 L 115.832031 26.589844 L 117.535156 21.320312 Z M 119.242188 26.589844 " fill-opacity="1" fill-rule="nonzero"/><path fill="#000000" d="M 161.472656 32.289062 L 165.757812 17.324219 L 160.664062 17.324219 L 158.757812 26.480469 L 156.488281 17.324219 L 153.078125 17.324219 L 150.8125 26.480469 L 148.882812 17.324219 L 143.8125 17.324219 L 148.097656 32.289062 L 152.855469 32.289062 L 154.785156 23.808594 L 156.714844 32.289062 Z M 161.472656 32.289062 " fill-opacity="1" fill-rule="nonzero"/><path fill="#000000" d="M 196.628906 32.289062 L 196.628906 28.519531 L 189.808594 28.519531 L 189.808594 26.613281 L 196.472656 26.613281 L 196.472656 22.84375 L 189.808594 22.84375 L 189.808594 21.09375 L 196.628906 21.09375 L 196.628906 17.324219 L 185.277344 17.324219 L 185.277344 32.289062 Z M 196.628906 32.289062 " fill-opacity="1" fill-rule="nonzero"/><path fill="#000000" d="M 232.351562 32.289062 L 226.832031 17.324219 L 221.132812 17.324219 L 215.613281 32.289062 L 220.527344 32.289062 L 221.109375 30.359375 L 226.855469 30.359375 L 227.4375 32.289062 Z M 225.6875 26.589844 L 222.277344 26.589844 L 223.980469 21.320312 Z M 225.6875 26.589844 " fill-opacity="1" fill-rule="nonzero"/><path fill="#000000" d="M 265.132812 32.289062 L 262.417969 26.996094 C 263.609375 26.414062 265.113281 25.042969 265.113281 22.464844 C 265.113281 19.660156 263.226562 17.324219 259.726562 17.324219 L 251.738281 17.324219 L 251.738281 32.289062 L 256.269531 32.289062 L 256.269531 27.488281 L 257.90625 27.488281 L 259.972656 32.289062 Z M 260.511719 22.394531 C 260.511719 23.226562 259.792969 23.71875 259.03125 23.71875 L 256.269531 23.71875 L 256.269531 21.09375 L 259.03125 21.09375 C 259.792969 21.09375 260.511719 21.589844 260.511719 22.394531 Z M 260.511719 22.394531 " fill-opacity="1" fill-rule="nonzero"/></svg>