<?xml version="1.0" encoding="UTF-8" standalone="no"?>
<!DOCTYPE svg PUBLIC "-//W3C//DTD SVG 1.1//EN" "http://www.w3.org/Graphics/SVG/1.1/DTD/svg11.dtd">
<svg width="1514px" height="89px" version="1.1" xmlns="http://www.w3.org/2000/svg" xmlns:xlink="http://www.w3.org/1999/xlink" xml:space="preserve" xmlns:serif="http://www.serif.com/" style="fill-rule:evenodd;clip-rule:evenodd;stroke-linejoin:round;stroke-miterlimit:2;">
    <g transform="matrix(1,0,0,1,-3413.97,-15738.9)">
        <g transform="matrix(10.8898,7.88861e-31,-1.18329e-30,10.8898,-12.8914,11368.9)">
            <path d="M323.645,409.304L320.691,401.295L317.641,401.295L314.687,409.304L317.317,409.304L317.629,408.271L320.703,408.271L321.015,409.304L323.645,409.304ZM320.078,406.254L318.253,406.254L319.166,403.432L320.078,406.254Z" style="fill-rule:nonzero;"/>
            <path d="M334.017,406.014C334.017,407.995 335.17,409.448 337.872,409.448C340.573,409.448 341.714,407.995 341.714,406.002L341.714,401.295L339.253,401.295L339.253,405.93C339.253,406.698 338.856,407.311 337.872,407.311C336.875,407.311 336.479,406.698 336.479,405.93L336.479,401.295L334.017,401.295L334.017,406.014Z" style="fill-rule:nonzero;"/>
            <path d="M360.12,409.304L358.667,406.47C359.304,406.158 360.108,405.426 360.108,404.045C360.108,402.544 359.099,401.295 357.226,401.295L352.951,401.295L352.951,409.304L355.377,409.304L355.377,406.734L356.254,406.734L357.358,409.304L360.12,409.304ZM357.646,404.009C357.646,404.453 357.262,404.717 356.854,404.717L355.377,404.717L355.377,403.312L356.854,403.312C357.262,403.312 357.646,403.576 357.646,404.009Z" style="fill-rule:nonzero;"/>
            <path d="M379.126,409.304L376.172,401.295L373.122,401.295L370.169,409.304L372.798,409.304L373.11,408.271L376.184,408.271L376.497,409.304L379.126,409.304ZM375.56,406.254L373.735,406.254L374.647,403.432L375.56,406.254Z" style="fill-rule:nonzero;"/>
            <path d="M398.157,409.304L400.45,401.295L397.724,401.295L396.704,406.194L395.491,401.295L393.666,401.295L392.453,406.194L391.42,401.295L388.707,401.295L391,409.304L393.546,409.304L394.578,404.765L395.611,409.304L398.157,409.304Z" style="fill-rule:nonzero;"/>
            <path d="M416.971,409.304L416.971,407.287L413.32,407.287L413.32,406.266L416.887,406.266L416.887,404.249L413.32,404.249L413.32,403.312L416.971,403.312L416.971,401.295L410.895,401.295L410.895,409.304L416.971,409.304Z" style="fill-rule:nonzero;"/>
            <path d="M436.085,409.304L433.131,401.295L430.081,401.295L427.127,409.304L429.757,409.304L430.069,408.271L433.143,408.271L433.455,409.304L436.085,409.304ZM432.519,406.254L430.694,406.254L431.606,403.432L432.519,406.254Z" style="fill-rule:nonzero;"/>
            <path d="M453.626,409.304L452.173,406.47C452.81,406.158 453.614,405.426 453.614,404.045C453.614,402.544 452.606,401.295 450.732,401.295L446.458,401.295L446.458,409.304L448.883,409.304L448.883,406.734L449.76,406.734L450.864,409.304L453.626,409.304ZM451.153,404.009C451.153,404.453 450.768,404.717 450.36,404.717L448.883,404.717L448.883,403.312L450.36,403.312C450.768,403.312 451.153,403.576 451.153,404.009Z" style="fill-rule:nonzero;"/>
        </g>
    </g>
</svg>
